<?xml version="1.0" encoding="UTF-8" standalone="no"?>
<svg
   xmlns:dc="http://purl.org/dc/elements/1.1/"
   xmlns:cc="http://creativecommons.org/ns#"
   xmlns:rdf="http://www.w3.org/1999/02/22-rdf-syntax-ns#"
   xmlns:svg="http://www.w3.org/2000/svg"
   xmlns="http://www.w3.org/2000/svg"
   version="1.1"
   id="hh"
   x="0px"
   y="0px"
   width="720"
   height="340"
   viewBox="0 0 720 340"
   enable-background="new 0 0 720 340"
   xml:space="preserve"><metadata
     id="metadata4143"><rdf:RDF><cc:Work
         rdf:about=""><dc:format>image/svg+xml</dc:format><dc:type
           rdf:resource="http://purl.org/dc/dcmitype/StillImage" /><dc:title></dc:title></cc:Work></rdf:RDF></metadata><defs
     id="defs4141" /><rect
     y="0"
     x="0"
     height="340"
     width="720"
     id="rect4710"
     style="fill:#171f26;fill-opacity:1;stroke:none;stroke-width:15;stroke-miterlimit:4;stroke-dasharray:none;stroke-opacity:1" /><path
     style="fill:#0e83cd"
     d="m 360.2,54.9 -100,57.75 -0.2,115.1 99.8,57.35 100,-57.75 0.2,-115.1 -99.8,-57.35 z m 46.3,164.4 -9.2,5.35 -9.3,-5.5 0,-39.65 -56,0 0,39.8 -9.2,5.35 -9.3,-5.5 0,-98.5 9.25,-5.3 9.25,5.4 0,39.75 56,0 0,-39.8 9.25,-5.3 9.25,5.4 0,98.5 z"
     id="path4137" /><text
     id="text4712"
     y="194.24001"
     x="468.48001"
     style="font-style:normal;font-variant:normal;font-weight:normal;font-stretch:normal;font-size:80px;line-height:125%;font-family:'Courier';text-align:start;letter-spacing:0px;word-spacing:0px;writing-mode:lr-tb;text-anchor:start;fill:#ffffff;fill-opacity:1;stroke:none;stroke-width:1px;stroke-linecap:butt;stroke-linejoin:miter;stroke-opacity:1"
     xml:space="preserve"><tspan
       y="194.24001"
       x="468.48001"
       id="tspan4714">ELLO</tspan></text>
</svg>