<?xml version="1.0" encoding="UTF-8" standalone="no"?>
<svg
   xmlns:dc="http://purl.org/dc/elements/1.1/"
   xmlns:cc="http://creativecommons.org/ns#"
   xmlns:rdf="http://www.w3.org/1999/02/22-rdf-syntax-ns#"
   xmlns:svg="http://www.w3.org/2000/svg"
   xmlns="http://www.w3.org/2000/svg"
   xmlns:sodipodi="http://sodipodi.sourceforge.net/DTD/sodipodi-0.dtd"
   xmlns:inkscape="http://www.inkscape.org/namespaces/inkscape"
   xml:space="preserve"
   enable-background="new 0 0 720 340"
   viewBox="0 0 720 340"
   height="340"
   width="720"
   y="0px"
   x="0px"
   id="hh"
   version="1.1"
   inkscape:version="0.91 r13725"
   sodipodi:docname="jellybean.svg"><sodipodi:namedview
     pagecolor="#ffffff"
     bordercolor="#666666"
     borderopacity="1"
     objecttolerance="10"
     gridtolerance="10"
     guidetolerance="10"
     inkscape:pageopacity="0"
     inkscape:pageshadow="2"
     inkscape:window-width="1442"
     inkscape:window-height="737"
     id="namedview4210"
     showgrid="false"
     inkscape:zoom="1.2022714"
     inkscape:cx="336.11771"
     inkscape:cy="131.63228"
     inkscape:window-x="6"
     inkscape:window-y="35"
     inkscape:window-maximized="0"
     inkscape:current-layer="hh" /><metadata
     id="metadata4143"><rdf:RDF><cc:Work
         rdf:about=""><dc:format>image/svg+xml</dc:format><dc:type
           rdf:resource="http://purl.org/dc/dcmitype/StillImage" /><dc:title /></cc:Work></rdf:RDF></metadata><defs
     id="defs4141" /><rect
     style="fill:#ffffff;fill-opacity:1;stroke:none;stroke-width:15;stroke-miterlimit:4;stroke-dasharray:none;stroke-opacity:1"
     id="rect4710"
     width="720"
     height="340"
     x="0"
     y="0" /><path
     style="fill:none;fill-opacity:1;stroke:#000000;stroke-width:8.75;stroke-linecap:round;stroke-linejoin:round;stroke-miterlimit:4;stroke-dasharray:none;stroke-opacity:1"
     d="m 154.90963,114.32197 c 29.31797,-33.448047 58.56671,-21.411667 126.00897,-7.8877 39.4102,7.9028 58.81198,-0.51821 86.45097,-19.664078 52.36068,-36.270906 78.80273,-71.127713 135.33198,-39.299151 43.86529,24.698181 33.36862,109.858879 -1.1891,140.272829 -73.03279,64.27554 -158.20798,87.73713 -261.77617,64.65472 -76.67321,-17.0883 -137.64801,-77.81422 -84.82665,-138.07662 z"
     id="path4239"
     inkscape:connector-curvature="0"
     sodipodi:nodetypes="sssssss" /><path
     style="fill:none;fill-opacity:1;stroke:#000000;stroke-width:7.25778437;stroke-linecap:round;stroke-linejoin:round;stroke-miterlimit:4;stroke-dasharray:none;stroke-opacity:1"
     d="m 139.11993,135.08597 -89.271771,0"
     id="path4243"
     inkscape:connector-curvature="0" /><path
     style="fill:none;fill-opacity:1;stroke:#000000;stroke-width:7.06789637;stroke-linecap:round;stroke-linejoin:round;stroke-miterlimit:4;stroke-dasharray:none;stroke-opacity:1"
     d="m 531.43775,135.91773 100.39994,0"
     id="path4245"
     inkscape:connector-curvature="0" /><path
     style="fill:none;fill-opacity:1;stroke:#000000;stroke-width:5;stroke-linecap:round;stroke-linejoin:round;stroke-miterlimit:4;stroke-dasharray:none;stroke-opacity:1"
     d="m 408.09727,134.84322 c 21.66777,-0.43152 68.89462,-12.67274 78.28457,-47.543098 7.96705,-29.586307 -21.68229,-39.08183 -41.49301,-28.169528 -27.53353,15.166242 -41.04436,28.391322 -58.63256,43.479516 -17.20754,14.76164 0.80618,32.65203 21.841,32.23311 z"
     id="path4251"
     inkscape:connector-curvature="0"
     sodipodi:nodetypes="sssss" /><ellipse
     style="fill:none;fill-opacity:1;stroke:#000000;stroke-width:5;stroke-linecap:round;stroke-linejoin:round;stroke-miterlimit:4;stroke-dasharray:none;stroke-opacity:1"
     id="path4253"
     transform="matrix(0.97585693,0.21841073,-0.21841073,0.97585693,0,0)"
     ry="9.8760099"
     rx="13.304208"
     cy="49.671749"
     cx="378.90067" /><g
     transform="translate(98.979319,22.457493)"
     style="font-style:normal;font-weight:normal;font-size:40px;line-height:125%;font-family:Sans;letter-spacing:0px;word-spacing:0px;fill:#000000;fill-opacity:1;stroke:none;stroke-width:1px;stroke-linecap:butt;stroke-linejoin:miter;stroke-opacity:1"
     id="flowRoot4274"><path
       d="m 151.14648,251.73129 3.94532,0 0,27.12891 q 0,5.27344 -2.01172,7.65625 -1.99219,2.38281 -6.42578,2.38281 l -1.50391,0 0,-3.32031 1.23047,0 q 2.61719,0 3.69141,-1.46484 1.07421,-1.46485 1.07421,-5.25391 l 0,-27.12891 z"
       style=""
       id="path4302" /><path
       d="m 181.49805,269.05551 0,1.75782 -16.52344,0 q 0.23437,3.71093 2.22656,5.66406 2.01172,1.93359 5.58594,1.93359 2.07031,0 4.00391,-0.50781 1.95312,-0.50781 3.86718,-1.52344 l 0,3.39844 q -1.93359,0.82031 -3.96484,1.25 -2.03125,0.42969 -4.12109,0.42969 -5.23438,0 -8.30079,-3.04688 -3.04687,-3.04687 -3.04687,-8.24219 0,-5.37109 2.89062,-8.51562 2.91016,-3.16406 7.83204,-3.16406 4.41406,0 6.97265,2.85156 2.57813,2.83203 2.57813,7.71484 z m -3.59375,-1.05468 q -0.0391,-2.94922 -1.66016,-4.70704 -1.60156,-1.75781 -4.25781,-1.75781 -3.00781,0 -4.82422,1.69922 -1.79688,1.69922 -2.07031,4.78516 l 12.8125,-0.0195 z"
       style=""
       id="path4304" /><path
       d="m 187.31836,250.50083 3.59375,0 0,30.39062 -3.59375,0 0,-30.39062 z"
       style=""
       id="path4306" /><path
       d="m 198.41211,250.50083 3.59375,0 0,30.39062 -3.59375,0 0,-30.39062 z"
       style=""
       id="path4308" /><path
       d="m 218.60742,282.9227 q -1.52344,3.90625 -2.96875,5.09766 -1.44531,1.1914 -3.86719,1.1914 l -2.87109,0 0,-3.00781 2.10938,0 q 1.48437,0 2.30468,-0.70312 0.82032,-0.70313 1.81641,-3.32032 l 0.64453,-1.64062 -8.84766,-21.52344 3.8086,0 6.83594,17.10938 6.83593,-17.10938 3.8086,0 -9.60938,23.90625 z"
       style=""
       id="path4310" /><path
       d="m 248.88086,269.97348 q 0,-3.96484 -1.64063,-6.21094 -1.62109,-2.26562 -4.47265,-2.26562 -2.85156,0 -4.49219,2.26562 -1.62109,2.2461 -1.62109,6.21094 0,3.96485 1.62109,6.23047 1.64063,2.24609 4.49219,2.24609 2.85156,0 4.47265,-2.24609 1.64063,-2.26562 1.64063,-6.23047 z m -12.22656,-7.63672 q 1.13281,-1.95312 2.85156,-2.89062 1.73828,-0.95703 4.14062,-0.95703 3.98438,0 6.46485,3.16406 2.5,3.16406 2.5,8.32031 0,5.15625 -2.5,8.32031 -2.48047,3.16407 -6.46485,3.16407 -2.40234,0 -4.14062,-0.9375 -1.71875,-0.95703 -2.85156,-2.91016 l 0,3.28125 -3.61328,0 0,-30.39062 3.61328,0 0,11.83593 z"
       style=""
       id="path4312" /><path
       d="m 277.2793,269.05551 0,1.75782 -16.52344,0 q 0.23437,3.71093 2.22656,5.66406 2.01172,1.93359 5.58594,1.93359 2.07031,0 4.00391,-0.50781 1.95312,-0.50781 3.86718,-1.52344 l 0,3.39844 q -1.93359,0.82031 -3.96484,1.25 -2.03125,0.42969 -4.12109,0.42969 -5.23438,0 -8.30079,-3.04688 -3.04687,-3.04687 -3.04687,-8.24219 0,-5.37109 2.89062,-8.51562 2.91016,-3.16406 7.83204,-3.16406 4.41406,0 6.97265,2.85156 2.57813,2.83203 2.57813,7.71484 z m -3.59375,-1.05468 q -0.0391,-2.94922 -1.66016,-4.70704 -1.60156,-1.75781 -4.25781,-1.75781 -3.00781,0 -4.82422,1.69922 -1.79688,1.69922 -2.07031,4.78516 l 12.8125,-0.0195 z"
       style=""
       id="path4314" /><path
       d="m 293.04102,269.89536 q -4.35547,0 -6.03516,0.99609 -1.67969,0.99609 -1.67969,3.39844 0,1.91406 1.25,3.04687 1.26953,1.11328 3.4375,1.11328 2.98828,0 4.78516,-2.10937 1.8164,-2.12891 1.8164,-5.64453 l 0,-0.80078 -3.57421,0 z m 7.16796,-1.48438 0,12.48047 -3.59375,0 0,-3.32031 q -1.23046,1.99219 -3.0664,2.94922 -1.83594,0.9375 -4.49219,0.9375 -3.35937,0 -5.35156,-1.875 -1.97266,-1.89453 -1.97266,-5.0586 0,-3.6914 2.46094,-5.5664 2.48047,-1.875 7.38281,-1.875 l 5.03906,0 0,-0.35157 q 0,-2.48046 -1.64062,-3.82812 -1.62109,-1.36719 -4.57031,-1.36719 -1.875,0 -3.65235,0.44922 -1.77734,0.44922 -3.41797,1.34766 l 0,-3.32032 q 1.97266,-0.76171 3.82813,-1.13281 1.85547,-0.39062 3.61328,-0.39062 4.74609,0 7.08984,2.46093 2.34375,2.46094 2.34375,7.46094 z"
       style=""
       id="path4316" /><path
       d="m 325.89258,267.68833 0,13.20312 -3.59375,0 0,-13.08594 q 0,-3.10547 -1.21094,-4.64843 -1.21094,-1.54297 -3.63281,-1.54297 -2.91016,0 -4.58985,1.85547 -1.67968,1.85546 -1.67968,5.05859 l 0,12.36328 -3.61328,0 0,-21.875 3.61328,0 0,3.39844 q 1.28906,-1.97266 3.02734,-2.94922 1.75781,-0.97656 4.04297,-0.97656 3.76953,0 5.70312,2.34375 1.9336,2.32422 1.9336,6.85547 z"
       style=""
       id="path4318" /></g></svg>