<?xml version="1.0" encoding="UTF-8" standalone="no"?>
<svg
   xmlns:dc="http://purl.org/dc/elements/1.1/"
   xmlns:cc="http://creativecommons.org/ns#"
   xmlns:rdf="http://www.w3.org/1999/02/22-rdf-syntax-ns#"
   xmlns:svg="http://www.w3.org/2000/svg"
   xmlns="http://www.w3.org/2000/svg"
   xml:space="preserve"
   enable-background="new 0 0 720 340"
   viewBox="0 0 720 340"
   height="340"
   width="720"
   y="0px"
   x="0px"
   id="hh"
   version="1.1"><metadata
     id="metadata4143"><rdf:RDF><cc:Work
         rdf:about=""><dc:format>image/svg+xml</dc:format><dc:type
           rdf:resource="http://purl.org/dc/dcmitype/StillImage" /><dc:title></dc:title></cc:Work></rdf:RDF></metadata><defs
     id="defs4141" /><rect
     style="fill:#ffffff;fill-opacity:1;stroke:none;stroke-width:15;stroke-miterlimit:4;stroke-dasharray:none;stroke-opacity:1"
     id="rect4710"
     width="720"
     height="340"
     x="0"
     y="0" /><g
     transform="translate(-35.931476,-137.07263)"
     id="g4229"><path
       style="fill:#231f20"
       d="m 399.767,279.009 c 9.061,8.29 13.589,19.655 13.589,34.425 0,14.773 -4.418,26.484 -13.251,35.091 -8.83,8.608 -22.312,12.936 -40.436,12.936 l -31.895,0 0,-94.558 32.983,0 c 16.944,-0.001 29.947,3.814 39.01,12.106 z m -15.563,56.173 c 5.206,-4.894 7.812,-12.021 7.812,-21.357 0,-9.329 -2.606,-16.653 -7.812,-21.682 -5.213,-5.029 -13.205,-7.68 -23.992,-7.68 l -12.175,0 0,58.086 13.809,0 c 9.693,0 17.145,-2.475 22.358,-7.367 z"
       id="path4203" /><path
       style="fill:#231f20"
       d="m 488.554,361.46 -18.911,0 0,-9.044 c -5.403,6.614 -11.698,9.92 -19.445,9.92 -7.745,0 -14.221,-2.24 -19.476,-6.725 -5.253,-4.485 -7.868,-10.467 -7.868,-17.944 0,-7.474 2.726,-12.957 8.161,-16.674 5.438,-3.715 12.875,-5.461 22.299,-5.461 l 14.979,0 0,-0.631 c 0,-7.791 -4,-11.688 -12.242,-11.688 -3.538,0 -7.21,0.702 -11.158,2.104 -3.938,1.406 -7.239,3.147 -9.959,5.232 l -9.092,-13.185 c 9.604,-6.978 20.581,-10.466 32.903,-10.466 8.877,0 15.945,2.221 21.57,6.662 5.612,4.438 8.239,11.461 8.239,21.066 l 0,46.834 z m -20.262,-28.071 0,-2.997 -12.67,0 c -8.152,0 -12.229,2.268 -12.229,7.343 0,2.627 0.969,4.508 2.918,5.914 1.947,1.404 4.736,2.04 8.363,2.04 3.625,0 6.76,-1.146 9.53,-3.364 2.758,-2.221 4.088,-5.222 4.088,-8.936 z"
       id="path4205" /><path
       style="fill:#231f20"
       d="m 542.311,306.075 c -6.071,0 -10.881,2.148 -13.87,6.452 -2.988,4.305 -4.765,9.988 -4.765,17.054 l 0,31.879 -20.262,0 0,-72.945 20.262,0 0,9.261 c 2.702,-2.989 6.388,-5.527 10.326,-7.611 3.945,-2.085 8.585,-3.172 12.638,-3.264 l 0,19.175 -4.329,0 z"
       id="path4207" /><path
       style="fill:#231f20"
       d="m 579.061,303.374 0,32.188 c 0,2.81 0.828,5.008 2.278,6.59 1.446,1.586 3.223,2.381 5.214,2.381 3.81,0 7.05,-1.721 9.675,-5.167 l 7.628,14.271 c -6.346,5.802 -13.021,8.698 -20.038,8.698 -7.026,0 -12.937,-2.309 -17.777,-6.931 -4.853,-4.62 -7.243,-10.917 -7.243,-18.894 l 0,-69.609 20.264,0 0,20.262 21.587,0 -11.14,16.21 -10.448,0 z"
       id="path4209" /><path
       style="fill:#00c4b3"
       d="m 217.673,281.663 -7.089,-7.092 0.027,51.234 0.086,2.391 c 0.032,1.132 0.249,2.401 0.591,3.717 l 56.154,19.804 14.034,-6.218 0.011,-0.02 -63.814,-63.816 z"
       id="path4211" /><path
       style="fill:#22d3c5"
       d="m 211.289,331.913 0.005,0 c -0.005,-0.021 -0.013,-0.045 -0.024,-0.071 0.011,0.026 0.011,0.05 0.019,0.071 z m 70.198,13.566 m -0.01,0.02 -14.034,6.218 -56.148,-19.804 c 1.071,4.118 3.448,8.749 6,11.276 l 18.321,18.221 40.757,0.052 5.116,-15.982 -0.012,0.019 z"
       id="path4213" /><path
       style="fill:#0075c9"
       d="m 210.774,274.571 -21.832,32.972 c -1.812,1.937 -0.91,5.931 2.01,8.873 l 12.604,12.706 7.922,2.791 c -0.343,-1.315 -0.559,-2.585 -0.591,-3.717 l -0.087,-2.391 -0.026,-51.234 0,0 z"
       id="path4215" /><path
       style="fill:#0075c9"
       d="m 267.905,275.23 c -1.317,-0.334 -2.584,-0.545 -3.723,-0.577 l -2.533,-0.093 -51.065,0.011 70.911,70.908 0.006,0 6.229,-14.05 -19.825,-56.199 z"
       id="path4217" /><path
       style="fill:#00a8e1"
       d="m 267.839,275.218 c 0.023,0.008 0.047,0.013 0.066,0.019 l 0,-0.006 c -0.023,-0.005 -0.043,-0.005 -0.066,-0.013 z m 11.334,6.028 c -2.578,-2.596 -7.142,-4.954 -11.268,-6.01 l 19.824,56.193 -6.229,14.05 -0.006,0 15.218,-4.862 0.032,-41.723 -17.571,-17.648 z"
       id="path4219" /><path
       style="fill:#00c4b3"
       d="m 265.124,267.357 -12.698,-12.61 c -2.937,-2.907 -6.934,-3.815 -8.87,-2.006 l -32.972,21.83 51.065,-0.011 2.533,0.093 c 1.139,0.032 2.405,0.243 3.723,0.577 l -2.781,-7.873 z m -54.54,7.214"
       id="path4221" /></g><text
     id="text4241"
     y="89.870964"
     x="297.48389"
     style="font-style:normal;font-weight:normal;font-size:40px;line-height:125%;font-family:Sans;letter-spacing:0px;word-spacing:0px;fill:#000000;fill-opacity:1;stroke:none;stroke-width:1px;stroke-linecap:butt;stroke-linejoin:miter;stroke-opacity:1"
     xml:space="preserve"><tspan
       y="89.870964"
       x="297.48389"
       id="tspan4243">JSONP in</tspan></text>
</svg>